<mxfile host="app.diagrams.net" agent="Mozilla/5.0 (Windows NT 10.0; Win64; x64) AppleWebKit/537.36 (KHTML, like Gecko) Chrome/138.0.0.0 Safari/537.36 Edg/138.0.0.0" version="28.0.6">
  <diagram name="MCP Sampling" id="WIpzaW17cE0JvvRwE99d">
    <mxGraphModel dx="1347" dy="790" grid="1" gridSize="10" guides="1" tooltips="1" connect="1" arrows="1" fold="1" page="1" pageScale="1" pageWidth="850" pageHeight="1100" math="0" shadow="0">
      <root>
        <mxCell id="0" />
        <mxCell id="1" parent="0" />
        <mxCell id="MZyaNlkFfumaUPh35j-n-26" value="MCP Sampling Mechanism Flipped Interaction" style="whiteSpace=wrap;strokeWidth=2;verticalAlign=top;" vertex="1" parent="1">
          <mxGeometry x="20" y="20" width="1276" height="750" as="geometry" />
        </mxCell>
        <mxCell id="MZyaNlkFfumaUPh35j-n-27" value="MCP Server" style="whiteSpace=wrap;strokeWidth=2;" vertex="1" parent="MZyaNlkFfumaUPh35j-n-26">
          <mxGeometry x="221" y="83" width="140" height="54" as="geometry" />
        </mxCell>
        <mxCell id="MZyaNlkFfumaUPh35j-n-28" value="Key Benefits" style="whiteSpace=wrap;strokeWidth=2;" vertex="1" parent="MZyaNlkFfumaUPh35j-n-26">
          <mxGeometry x="28" y="46" width="1099" height="675" as="geometry" />
        </mxCell>
        <mxCell id="MZyaNlkFfumaUPh35j-n-29" value="MCP Client (User-Facing)" style="whiteSpace=wrap;strokeWidth=2;" vertex="1" parent="MZyaNlkFfumaUPh35j-n-26">
          <mxGeometry x="544" y="259" width="237" height="54" as="geometry" />
        </mxCell>
        <mxCell id="MZyaNlkFfumaUPh35j-n-30" value="User Review/Edit/Reject" style="whiteSpace=wrap;strokeWidth=2;" vertex="1" parent="MZyaNlkFfumaUPh35j-n-26">
          <mxGeometry x="853" y="465" width="238" height="54" as="geometry" />
        </mxCell>
        <mxCell id="MZyaNlkFfumaUPh35j-n-31" value="LLM" style="whiteSpace=wrap;strokeWidth=2;" vertex="1" parent="MZyaNlkFfumaUPh35j-n-26">
          <mxGeometry x="1162" y="629" width="88" height="54" as="geometry" />
        </mxCell>
        <mxCell id="MZyaNlkFfumaUPh35j-n-32" value="User Review/Edit/Approve/Reject" style="whiteSpace=wrap;strokeWidth=2;" vertex="1" parent="MZyaNlkFfumaUPh35j-n-26">
          <mxGeometry x="63" y="453" width="269" height="78" as="geometry" />
        </mxCell>
        <mxCell id="MZyaNlkFfumaUPh35j-n-33" value="Transparency &amp; Control" style="whiteSpace=wrap;strokeWidth=2;" vertex="1" parent="MZyaNlkFfumaUPh35j-n-26">
          <mxGeometry x="189" y="629" width="228" height="54" as="geometry" />
        </mxCell>
        <mxCell id="MZyaNlkFfumaUPh35j-n-34" value="Smart Decisions, Structured Data, Multi-step Tasks" style="whiteSpace=wrap;strokeWidth=2;" vertex="1" parent="MZyaNlkFfumaUPh35j-n-26">
          <mxGeometry x="161" y="235" width="260" height="102" as="geometry" />
        </mxCell>
        <mxCell id="MZyaNlkFfumaUPh35j-n-35" value="Interoperability" style="whiteSpace=wrap;strokeWidth=2;" vertex="1" parent="MZyaNlkFfumaUPh35j-n-26">
          <mxGeometry x="631" y="465" width="172" height="54" as="geometry" />
        </mxCell>
        <mxCell id="MZyaNlkFfumaUPh35j-n-36" value="1. Needs LLM Help (Sampling Request)" style="curved=1;startArrow=none;endArrow=block;exitX=1;exitY=0.5;entryX=0.5;entryY=0;rounded=0;exitDx=0;exitDy=0;" edge="1" parent="MZyaNlkFfumaUPh35j-n-26" source="MZyaNlkFfumaUPh35j-n-51" target="MZyaNlkFfumaUPh35j-n-29">
          <mxGeometry relative="1" as="geometry">
            <Array as="points">
              <mxPoint x="663" y="186" />
            </Array>
          </mxGeometry>
        </mxCell>
        <mxCell id="MZyaNlkFfumaUPh35j-n-37" value="2. Shows User Prompt/Context" style="curved=1;startArrow=none;endArrow=block;exitX=0.83;exitY=1;entryX=0.5;entryY=-0.01;rounded=0;" edge="1" parent="MZyaNlkFfumaUPh35j-n-26" source="MZyaNlkFfumaUPh35j-n-29" target="MZyaNlkFfumaUPh35j-n-30">
          <mxGeometry relative="1" as="geometry">
            <Array as="points">
              <mxPoint x="973" y="395" />
            </Array>
          </mxGeometry>
        </mxCell>
        <mxCell id="MZyaNlkFfumaUPh35j-n-38" value="3. If Approved" style="curved=1;startArrow=none;endArrow=block;exitX=0.5;exitY=0.99;entryX=0;entryY=0.23;rounded=0;" edge="1" parent="MZyaNlkFfumaUPh35j-n-26" source="MZyaNlkFfumaUPh35j-n-30" target="MZyaNlkFfumaUPh35j-n-31">
          <mxGeometry relative="1" as="geometry">
            <Array as="points">
              <mxPoint x="973" y="580" />
            </Array>
          </mxGeometry>
        </mxCell>
        <mxCell id="MZyaNlkFfumaUPh35j-n-39" value="4. Generates Response" style="curved=1;startArrow=none;endArrow=block;exitX=0;exitY=0.39;entryX=0.43;entryY=1;rounded=0;" edge="1" parent="MZyaNlkFfumaUPh35j-n-26" source="MZyaNlkFfumaUPh35j-n-31" target="MZyaNlkFfumaUPh35j-n-29">
          <mxGeometry relative="1" as="geometry">
            <Array as="points">
              <mxPoint x="594" y="580" />
              <mxPoint x="594" y="395" />
            </Array>
          </mxGeometry>
        </mxCell>
        <mxCell id="MZyaNlkFfumaUPh35j-n-40" value="5. Shows User LLM Response" style="curved=1;startArrow=none;endArrow=block;exitX=0.25;exitY=1;entryX=0.83;entryY=-0.01;rounded=0;" edge="1" parent="MZyaNlkFfumaUPh35j-n-26" source="MZyaNlkFfumaUPh35j-n-29" target="MZyaNlkFfumaUPh35j-n-32">
          <mxGeometry relative="1" as="geometry">
            <Array as="points">
              <mxPoint x="419" y="395" />
            </Array>
          </mxGeometry>
        </mxCell>
        <mxCell id="MZyaNlkFfumaUPh35j-n-41" value="6. If Approved" style="curved=1;startArrow=none;endArrow=block;exitX=0.39;exitY=-0.01;entryX=0;entryY=0.5;rounded=0;entryDx=0;entryDy=0;" edge="1" parent="MZyaNlkFfumaUPh35j-n-26" source="MZyaNlkFfumaUPh35j-n-32" target="MZyaNlkFfumaUPh35j-n-51">
          <mxGeometry relative="1" as="geometry">
            <Array as="points">
              <mxPoint x="124" y="395" />
              <mxPoint x="124" y="186" />
            </Array>
          </mxGeometry>
        </mxCell>
        <mxCell id="MZyaNlkFfumaUPh35j-n-42" value="Human-in-the-Loop (HITL)" style="curved=1;startArrow=none;endArrow=block;exitX=0;exitY=0.89;entryX=0.77;entryY=-0.01;rounded=0;" edge="1" parent="MZyaNlkFfumaUPh35j-n-26" source="MZyaNlkFfumaUPh35j-n-30" target="MZyaNlkFfumaUPh35j-n-33">
          <mxGeometry relative="1" as="geometry">
            <Array as="points">
              <mxPoint x="478" y="580" />
            </Array>
          </mxGeometry>
        </mxCell>
        <mxCell id="MZyaNlkFfumaUPh35j-n-43" value="Human-in-the-Loop (HITL)" style="curved=1;startArrow=none;endArrow=block;exitX=0.5;exitY=0.99;entryX=0.34;entryY=-0.01;rounded=0;" edge="1" parent="MZyaNlkFfumaUPh35j-n-26" source="MZyaNlkFfumaUPh35j-n-32" target="MZyaNlkFfumaUPh35j-n-33">
          <mxGeometry relative="1" as="geometry">
            <Array as="points">
              <mxPoint x="197" y="580" />
            </Array>
          </mxGeometry>
        </mxCell>
        <mxCell id="MZyaNlkFfumaUPh35j-n-44" value="Enables Complex Workflows" style="curved=1;startArrow=none;endArrow=block;exitX=0.5;exitY=1;entryX=0.5;entryY=0;rounded=0;exitDx=0;exitDy=0;" edge="1" parent="MZyaNlkFfumaUPh35j-n-26" source="MZyaNlkFfumaUPh35j-n-51" target="MZyaNlkFfumaUPh35j-n-34">
          <mxGeometry relative="1" as="geometry">
            <Array as="points" />
          </mxGeometry>
        </mxCell>
        <mxCell id="MZyaNlkFfumaUPh35j-n-45" value="Standardized Communication" style="curved=1;startArrow=none;endArrow=block;exitX=0.56;exitY=1;entryX=0.5;entryY=-0.01;rounded=0;" edge="1" parent="MZyaNlkFfumaUPh35j-n-26" source="MZyaNlkFfumaUPh35j-n-29" target="MZyaNlkFfumaUPh35j-n-35">
          <mxGeometry relative="1" as="geometry">
            <Array as="points">
              <mxPoint x="717" y="395" />
            </Array>
          </mxGeometry>
        </mxCell>
        <mxCell id="MZyaNlkFfumaUPh35j-n-51" value="MCP Server" style="whiteSpace=wrap;strokeWidth=2;" vertex="1" parent="MZyaNlkFfumaUPh35j-n-26">
          <mxGeometry x="168" y="90" width="237" height="54" as="geometry" />
        </mxCell>
        <mxCell id="MZyaNlkFfumaUPh35j-n-46" value="Traditional LLM Interaction" style="whiteSpace=wrap;strokeWidth=2;verticalAlign=top;" vertex="1" parent="1">
          <mxGeometry x="1346" y="254" width="358" height="281" as="geometry" />
        </mxCell>
        <mxCell id="MZyaNlkFfumaUPh35j-n-47" value="Application/Client" style="whiteSpace=wrap;strokeWidth=2;" vertex="1" parent="MZyaNlkFfumaUPh35j-n-46">
          <mxGeometry x="85" y="46" width="192" height="54" as="geometry" />
        </mxCell>
        <mxCell id="MZyaNlkFfumaUPh35j-n-48" value="LLM" style="whiteSpace=wrap;strokeWidth=2;" vertex="1" parent="MZyaNlkFfumaUPh35j-n-46">
          <mxGeometry x="137" y="198" width="88" height="54" as="geometry" />
        </mxCell>
        <mxCell id="MZyaNlkFfumaUPh35j-n-49" value="Sends Prompt" style="curved=1;startArrow=none;endArrow=block;exitX=0.37;exitY=0.99;entryX=0.21;entryY=-0.01;rounded=0;" edge="1" parent="MZyaNlkFfumaUPh35j-n-46" source="MZyaNlkFfumaUPh35j-n-47" target="MZyaNlkFfumaUPh35j-n-48">
          <mxGeometry relative="1" as="geometry">
            <Array as="points">
              <mxPoint x="109" y="149" />
            </Array>
          </mxGeometry>
        </mxCell>
        <mxCell id="MZyaNlkFfumaUPh35j-n-50" value="Generates Response" style="curved=1;startArrow=none;endArrow=block;exitX=0.79;exitY=-0.01;entryX=0.63;entryY=0.99;rounded=0;" edge="1" parent="MZyaNlkFfumaUPh35j-n-46" source="MZyaNlkFfumaUPh35j-n-48" target="MZyaNlkFfumaUPh35j-n-47">
          <mxGeometry relative="1" as="geometry">
            <Array as="points">
              <mxPoint x="254" y="149" />
            </Array>
          </mxGeometry>
        </mxCell>
      </root>
    </mxGraphModel>
  </diagram>
</mxfile>
